<svg xmlns="http://www.w3.org/2000/svg" width="14.674" height="12.607" viewBox="0 0 14.674 12.607">
  <g id="Add_family" data-name="Add family" transform="translate(0 0)">
    <path id="Path_19456" data-name="Path 19456" d="M4.849,42.063a.245.245,0,0,1-.054-.153v-.7a2.055,2.055,0,0,0,.908-1.5h.026a.675.675,0,0,0,.665-.786.654.654,0,0,0-.221-.388v-.879A1.6,1.6,0,0,0,4.58,36.072H2.972a.675.675,0,0,0-.505.231,1.365,1.365,0,0,0-1.318,1.363v.879a.653.653,0,0,0-.221.388.675.675,0,0,0,.665.786h.026a2.055,2.055,0,0,0,.908,1.5v.7a.245.245,0,0,1-.18.236l-1.511.412A1.136,1.136,0,0,0,0,43.652v.906a.673.673,0,0,0,.23.506v2.71a.215.215,0,0,0,.43,0V45.232h.719v3a.215.215,0,0,0,.43,0V44.1a.215.215,0,1,0-.43,0v.7h-.7a.245.245,0,0,1-.245-.245v-.906a.706.706,0,0,1,.519-.679l1.025-.28,1.238.708a.908.908,0,0,0,.9,0l.308-.176a.215.215,0,1,0-.213-.373l-.308.176a.476.476,0,0,1-.471,0l-.874-.5a.676.676,0,0,0,.406-.618v-.478a2.046,2.046,0,0,0,1.408,0v.478a.677.677,0,0,0,.149.423.215.215,0,1,0,.335-.27Zm-3.271-4.4a.935.935,0,0,1,.934-.934h.064a.215.215,0,0,0,.186-.107.242.242,0,0,1,.21-.123H4.58a1.165,1.165,0,0,1,1.164,1.164v.706l-.039,0H5.5a.245.245,0,0,1-.245-.245.215.215,0,0,0-.18-.212l-2.3-.384a.6.6,0,0,0-.7.6.245.245,0,0,1-.245.245H1.618l-.039,0v-.706ZM2.038,39.5a.215.215,0,0,0-.215-.215h-.23A.245.245,0,0,1,1.352,39a.264.264,0,0,1,.266-.2h.205a.675.675,0,0,0,.674-.676.173.173,0,0,1,.2-.171l2.151.359A.676.676,0,0,0,5.5,38.8H5.7a.264.264,0,0,1,.266.2.245.245,0,0,1-.241.287H5.5a.215.215,0,0,0-.215.215,1.623,1.623,0,0,1-3.246,0Z" transform="translate(0 -36.072)" fill="#fd5f80"/>
    <path id="Path_19457" data-name="Path 19457" d="M96.623,132.711v-.23a.215.215,0,0,0-.43,0v.23a.215.215,0,0,0,.43,0Z" transform="translate(-93.436 -129.509)" fill="#fd5f80"/>
    <path id="Path_19458" data-name="Path 19458" d="M144.506,132.266a.215.215,0,0,0-.215.215v.23a.215.215,0,1,0,.43,0v-.23A.215.215,0,0,0,144.506,132.266Z" transform="translate(-140.156 -129.509)" fill="#fd5f80"/>
    <path id="Path_19459" data-name="Path 19459" d="M107.855,170.846a.581.581,0,0,1-.559,0,.215.215,0,1,0-.2.38,1.008,1.008,0,0,0,.961,0,.215.215,0,1,0-.2-.38Z" transform="translate(-103.915 -166.959)" fill="#fd5f80"/>
    <path id="Path_19460" data-name="Path 19460" d="M294.148,66.837l-.754-.206a5.183,5.183,0,0,0,.6-.262.443.443,0,0,0,.213-.537,2.771,2.771,0,0,1-.146-.9V62.864a2.742,2.742,0,1,0-5.484,0v1.608a.215.215,0,1,0,.43,0v-.29a.675.675,0,0,0,.245.046h.026a2.052,2.052,0,0,0,2.746,1.713v.248a.676.676,0,0,0,.5.651l.525.143a1.856,1.856,0,0,1-2.138,1.134.215.215,0,0,0-.1.419,2.285,2.285,0,0,0,2.65-1.44l.569.155a.705.705,0,0,1,.519.679v.906a.245.245,0,0,1-.245.245h-.7v-.474a.215.215,0,0,0-.43,0v2.987a.215.215,0,1,0,.43,0V69.512h.719v1.623a.215.215,0,1,0,.43,0V69.344a.673.673,0,0,0,.23-.506v-.906A1.136,1.136,0,0,0,294.148,66.837Zm-5.138-3.973a2.312,2.312,0,1,1,4.624,0v.068a.718.718,0,0,0-.269-.053h-.205a.245.245,0,0,1-.245-.245.215.215,0,0,0-.18-.212l-2.3-.384a.6.6,0,0,0-.7.6.245.245,0,0,1-.245.245h-.205a.718.718,0,0,0-.269.053Zm.689,1.149a.215.215,0,0,0-.215-.215h-.23a.245.245,0,0,1-.241-.287.264.264,0,0,1,.266-.2h.205a.675.675,0,0,0,.674-.676.173.173,0,0,1,.2-.171l2.151.359a.676.676,0,0,0,.648.488h.205a.264.264,0,0,1,.266.2.245.245,0,0,1-.241.287h-.23a.215.215,0,0,0-.215.215,1.623,1.623,0,0,1-3.246,0Zm3.665.215h.026a.674.674,0,0,0,.245-.046v.75a3.206,3.206,0,0,0,.17,1.041.013.013,0,0,1,0,.014,5.016,5.016,0,0,1-1.2.427.245.245,0,0,1-.15-.225v-.466A2.055,2.055,0,0,0,293.364,64.228Z" transform="translate(-280.309 -59.433)" fill="#fd5f80"/>
    <path id="Path_19461" data-name="Path 19461" d="M353.139,172.792v-.23a.215.215,0,1,0-.43,0v.23a.215.215,0,1,0,.43,0Z" transform="translate(-342.6 -168.441)" fill="#fd5f80"/>
    <path id="Path_19462" data-name="Path 19462" d="M401.022,172.347a.215.215,0,0,0-.215.215v.23a.215.215,0,0,0,.43,0v-.23A.215.215,0,0,0,401.022,172.347Z" transform="translate(-389.32 -168.441)" fill="#fd5f80"/>
    <path id="Path_19463" data-name="Path 19463" d="M364.371,210.926a.581.581,0,0,1-.559,0,.215.215,0,0,0-.2.38,1.008,1.008,0,0,0,.961,0,.215.215,0,0,0-.2-.38Z" transform="translate(-353.079 -205.891)" fill="#fd5f80"/>
    <path id="Path_19464" data-name="Path 19464" d="M170.851,228.46a2.515,2.515,0,0,0-2.512,2.512v.459s0,0,0,.006a.674.674,0,0,0,.674.669h.027a1.806,1.806,0,0,0,.541,1.093,1.836,1.836,0,0,0,.365.275v.349a.243.243,0,0,1-.174.234l-.79.237a.9.9,0,0,0-.644.866v.176a.215.215,0,1,0,.43,0v-.176a.471.471,0,0,1,.338-.454l.4-.119a2.052,2.052,0,0,0,2.7,0l.4.119a.471.471,0,0,1,.338.454v.176a.215.215,0,1,0,.43,0v-.176a.9.9,0,0,0-.644-.866l-.79-.237a.243.243,0,0,1-.174-.234v-.362a1.875,1.875,0,0,0,.5-.437h.436a.675.675,0,0,0,.674-.674v-1.378a2.515,2.515,0,0,0-2.512-2.512Zm.845,5.966a1.623,1.623,0,0,1-1.689,0,.669.669,0,0,0,.37-.6v-.172a1.831,1.831,0,0,0,.474.062h.057a1.724,1.724,0,0,0,.418-.065v.175A.669.669,0,0,0,171.7,234.426Zm-.8-1.142a1.393,1.393,0,0,1-1.436-1.393.215.215,0,0,0-.215-.215h-.23a.245.245,0,0,1-.241-.287.264.264,0,0,1,.266-.2h.205a.675.675,0,0,0,.674-.674v-.141a.015.015,0,0,1,.019-.014l1.647.549a.965.965,0,0,1,.66.917A1.439,1.439,0,0,1,170.894,233.284Zm2.039-.933a.245.245,0,0,1-.245.245h-.177a1.921,1.921,0,0,0,.162-.772,1.394,1.394,0,0,0-.954-1.324l-1.647-.549a.445.445,0,0,0-.585.422v.141a.245.245,0,0,1-.245.245h-.205a.717.717,0,0,0-.262.05,2.082,2.082,0,0,1,4.158.165Z" transform="translate(-163.514 -222.946)" fill="#fd5f80"/>
    <path id="Path_19465" data-name="Path 19465" d="M224.923,324.868a.215.215,0,0,0-.215-.215h0a.215.215,0,1,0,.217.215Z" transform="translate(-218.058 -316.382)" fill="#fd5f80"/>
    <path id="Path_19466" data-name="Path 19466" d="M272.8,324.653h0a.215.215,0,1,0,.217.215A.214.214,0,0,0,272.8,324.653Z" transform="translate(-264.775 -316.382)" fill="#fd5f80"/>
    <path id="Path_19467" data-name="Path 19467" d="M233.458,358.548a.465.465,0,0,1-.631,0,.215.215,0,0,0-.288.319.895.895,0,0,0,1.207,0,.215.215,0,0,0-.288-.319Z" transform="translate(-225.806 -349.252)" fill="#fd5f80"/>
  </g>
</svg>
