<svg id="Complaints" xmlns="http://www.w3.org/2000/svg" width="29.031" height="29.031" viewBox="0 0 29.031 29.031">
  <g id="Group_1927" data-name="Group 1927">
    <g id="Group_1926" data-name="Group 1926">
      <path id="Path_3821" data-name="Path 3821" d="M21.112,0H4.29A4.3,4.3,0,0,0,0,4.29v9.79a4.3,4.3,0,0,0,4.29,4.29h.186v2.611a.567.567,0,0,0,.968.4l3.012-3.012h2.12a.567.567,0,1,0,0-1.134H8.222a.567.567,0,0,0-.4.166l-2.21,2.21V17.8a.567.567,0,0,0-.567-.567H4.29a3.16,3.16,0,0,1-3.156-3.156V4.29A3.16,3.16,0,0,1,4.29,1.134H21.112A3.16,3.16,0,0,1,24.268,4.29v4.9a.567.567,0,0,0,1.134,0V4.29A4.3,4.3,0,0,0,21.112,0Z" fill="#284ed6"/>
    </g>
  </g>
  <g id="Group_1929" data-name="Group 1929" transform="translate(14.114 13.501)">
    <g id="Group_1928" data-name="Group 1928">
      <path id="Path_3822" data-name="Path 3822" d="M249.483,238.1a.567.567,0,0,0-.567.567v.006a.567.567,0,0,0,1.134,0v-.006A.567.567,0,0,0,249.483,238.1Z" transform="translate(-248.916 -238.099)" fill="#284ed6"/>
    </g>
  </g>
  <g id="Group_1931" data-name="Group 1931" transform="translate(12.593 11.882)">
    <g id="Group_1930" data-name="Group 1930">
      <path id="Path_3823" data-name="Path 3823" d="M238.528,213.992a1.8,1.8,0,0,0-1.643-1.8,1.792,1.792,0,0,0,.132-.676V211.5a1.8,1.8,0,0,0-1.8-1.8h-7.908a.567.567,0,0,0-.207.039l-.928.364a.567.567,0,0,0-.566-.542h-2.948a.567.567,0,0,0-.567.567V220.1a.567.567,0,0,0,.567.567h2.948a.565.565,0,0,0,.429-.2l4.987,6.027a.567.567,0,0,0,.432.206h0a.567.567,0,0,0,.431-.2l.216-.253a3.508,3.508,0,0,0,.5-3.778l-.79-1.668h3.4a1.8,1.8,0,0,0,1.8-1.8v-.024a1.792,1.792,0,0,0-.132-.676,1.8,1.8,0,0,0,1.643-1.8v-.024a1.8,1.8,0,0,0-.492-1.236,1.8,1.8,0,0,0,.492-1.236ZM225.038,219a.566.566,0,0,0,0,.123v.414h-1.814V210.69h1.814Zm12.356-4.983a.669.669,0,0,1-.669.669h-3.787a.567.567,0,1,0,0,1.134h3.787a.669.669,0,0,1,.669.669v.024a.669.669,0,0,1-.669.669h-3.787a.567.567,0,1,0,0,1.134h2.276a.669.669,0,0,1,.668.669v.024a.669.669,0,0,1-.668.669h-4.292a.567.567,0,0,0-.512.81l1.174,2.478a2.373,2.373,0,0,1-.135,2.276l-5.277-6.378v-7.544l1.241-.487h7.8a.669.669,0,0,1,.668.669v.024a.669.669,0,0,1-.668.668h-2.276a.567.567,0,1,0,0,1.134h3.787a.669.669,0,0,1,.669.669Z" transform="translate(-222.09 -209.556)" fill="#284ed6"/>
    </g>
  </g>
  <g id="Group_1933" data-name="Group 1933" transform="translate(3.742 8.619)">
    <g id="Group_1932" data-name="Group 1932">
      <path id="Path_3824" data-name="Path 3824" d="M83.351,152H66.567a.567.567,0,0,0,0,1.134H83.351a.567.567,0,0,0,0-1.134Z" transform="translate(-66 -152)" fill="#ff6080"/>
    </g>
  </g>
  <g id="Group_1935" data-name="Group 1935" transform="translate(3.742 4.99)">
    <g id="Group_1934" data-name="Group 1934">
      <path id="Path_3825" data-name="Path 3825" d="M80.316,88H66.567a.567.567,0,0,0,0,1.134H80.316a.567.567,0,0,0,0-1.134Z" transform="translate(-66 -88)" fill="#ff6080"/>
    </g>
  </g>
  <g id="Group_1937" data-name="Group 1937" transform="translate(20.526 4.99)">
    <g id="Group_1936" data-name="Group 1936">
      <path id="Path_3826" data-name="Path 3826" d="M362.968,88.166a.566.566,0,1,0,.166.4A.571.571,0,0,0,362.968,88.166Z" transform="translate(-362 -88)" fill="#284ed6"/>
    </g>
  </g>
  <g id="Group_1939" data-name="Group 1939" transform="translate(3.742 12.248)">
    <g id="Group_1938" data-name="Group 1938">
      <path id="Path_3827" data-name="Path 3827" d="M72.835,216H66.567a.567.567,0,0,0,0,1.134h6.268a.567.567,0,0,0,0-1.134Z" transform="translate(-66 -216)" fill="#ff6080"/>
    </g>
  </g>
</svg>
