<svg id="Decisions_Proceed" data-name="Decisions &amp; Proceed" xmlns="http://www.w3.org/2000/svg" width="13.18" height="13.185" viewBox="0 0 13.18 13.185">
  <path id="Path_19450" data-name="Path 19450" d="M3.95,7.911v-.44A3.516,3.516,0,0,1,3.95.44,3.588,3.588,0,0,1,6.3,1.319a3.984,3.984,0,0,0-.835,3.8l.418-.132a3.539,3.539,0,0,1,.725-3.362,3.527,3.527,0,0,1,.725,3.362l.418.132a4,4,0,0,0-.835-3.8A3.511,3.511,0,1,1,9.224,7.472v.44A3.956,3.956,0,0,0,9.224,0,3.918,3.918,0,0,0,6.587,1.011,3.953,3.953,0,0,0,1.313,6.9,3.918,3.918,0,0,0,3.95,7.911Zm0,0" transform="translate(0.001 0)" fill="#fd6081"/>
  <path id="Path_19451" data-name="Path 19451" d="M86.073,204.835l-.659,2.857h8.461l-.659-2.857a.731.731,0,0,0-.505-.505L91.062,204l.4-.791a1.472,1.472,0,0,0,.154-.681V201.1a1.088,1.088,0,0,0-1.1-1.1H88.754a1.088,1.088,0,0,0-1.1,1.1v1.45a1.721,1.721,0,0,0,.154.681l.4.791-1.648.33A.673.673,0,0,0,86.073,204.835Zm6.725.11.527,2.307h-3.45v-.571l1.868-2.088.879.176a.238.238,0,0,1,.176.176Zm-1.56-.44-1.363,1.516v-.857l.945-.747Zm-2.461-4.065h1.758a.647.647,0,0,1,.659.659v.593a2.571,2.571,0,0,0-3.077,0V201.1A.648.648,0,0,1,88.776,200.439Zm-.659,2.11v-.264a2.123,2.123,0,0,1,3.011-.066l.066.066v.264a1.2,1.2,0,0,1-.11.483l-.505.989-.923.747-.923-.747-.506-.989a1.2,1.2,0,0,1-.11-.483Zm.374,1.868.945.747v.9L87.9,204.527Zm-1.1.22,2.044,2.044v.571h-3.45l.527-2.307a.238.238,0,0,1,.176-.176Zm0,0" transform="translate(-83.068 -194.506)" fill="#fd6081"/>
  <path id="Path_19452" data-name="Path 19452" d="M306.522,93.344l1.165-1.165,1.165,1.165.308-.308-1.165-1.165,1.165-1.165-.308-.308-1.165,1.165L306.522,90.4l-.308.308,1.165,1.165-1.165,1.165Zm0,0" transform="translate(-297.803 -87.916)" fill="#fd6081"/>
  <path id="Path_19453" data-name="Path 19453" d="M53.292,90.4l-2.264,2.264-.505-.506-.308.308.813.813L53.6,90.706Zm0,0" transform="translate(-48.836 -87.915)" fill="#fd6081"/>
  <path id="Path_19454" data-name="Path 19454" d="M143.813,424h1.1v.44h-1.1Zm0,0" transform="translate(-139.863 -412.353)" fill="#fd6081"/>
  <path id="Path_19455" data-name="Path 19455" d="M295.813,424h1.1v.44h-1.1Zm0,0" transform="translate(-287.687 -412.353)" fill="#fd6081"/>
</svg>
