<svg id="Downloads" xmlns="http://www.w3.org/2000/svg" width="24.646" height="22.841" viewBox="0 0 24.646 22.841">
  <g id="Group_1940" data-name="Group 1940" transform="translate(0 0)">
    <path id="Path_3828" data-name="Path 3828" d="M23.939,228.255a.7.7,0,0,0-.706.706v6.423a3.169,3.169,0,0,1-3.164,3.164H4.577a3.169,3.169,0,0,1-3.164-3.164v-6.528a.706.706,0,0,0-1.412,0v6.528a4.582,4.582,0,0,0,4.577,4.577H20.069a4.582,4.582,0,0,0,4.577-4.577v-6.423A.706.706,0,0,0,23.939,228.255Z" transform="translate(0 -217.119)" fill="#284ed6"/>
    <path id="Path_3829" data-name="Path 3829" d="M140.926,34.484a.711.711,0,0,0,.5.209.689.689,0,0,0,.5-.209L146.407,30a.706.706,0,1,0-1-1l-3.279,3.285V17.956a.706.706,0,1,0-1.412,0V32.282L137.432,29a.706.706,0,0,0-1,1Z" transform="translate(-129.1 -17.25)" fill="#ff6080"/>
  </g>
</svg>
