<svg id="Enquiry_Service" data-name="Enquiry / Service" xmlns="http://www.w3.org/2000/svg" width="25.862" height="29.032" viewBox="0 0 25.862 29.032">
  <path id="Path_3815" data-name="Path 3815" d="M20.075,3.787a12.931,12.931,0,0,0-18.287,0A12.845,12.845,0,0,0-2,12.931,12.959,12.959,0,0,0,.725,20.869l-1.766,7.457A.574.574,0,0,0-.85,28.9a.573.573,0,0,0,.366.132.573.573,0,0,0,.233-.049L7.7,25.452A12.932,12.932,0,0,0,20.075,3.787ZM10.932,24.715A11.821,11.821,0,0,1,7.8,24.294a.573.573,0,0,0-.385.029L.341,27.464l1.564-6.6a.573.573,0,0,0-.113-.494,11.784,11.784,0,1,1,9.14,4.346Zm0,0" transform="translate(1.999)" fill="#284ed6"/>
  <path id="Path_3816" data-name="Path 3816" d="M119.6,111.671a8.155,8.155,0,1,0-8.155,8.155A8.164,8.164,0,0,0,119.6,111.671Zm-8.155,7.008a7.008,7.008,0,1,1,7.008-7.008A7.016,7.016,0,0,1,111.445,118.679Zm0,0" transform="translate(-98.514 -98.82)" fill="#ff6080"/>
  <path id="Path_3817" data-name="Path 3817" d="M398.255,377.94a.573.573,0,0,0-.721.371,6.109,6.109,0,0,1-2.878,3.151.573.573,0,1,0,.574.992,7.215,7.215,0,0,0,3.4-3.793A.573.573,0,0,0,398.255,377.94Zm0,0" transform="translate(-376.39 -360.769)" fill="#284ed6"/>
  <path id="Path_3818" data-name="Path 3818" d="M351.952,479a.573.573,0,0,0-.747.316l0,.006a.573.573,0,0,0,1.063.431l0-.006A.573.573,0,0,0,351.952,479Zm0,0" transform="translate(-335.14 -457.236)" fill="#284ed6"/>
  <path id="Path_3819" data-name="Path 3819" d="M263.308,364.414a.835.835,0,0,0-.669.3,1.123,1.123,0,0,0,0,1.418.825.825,0,0,0,.669.3.961.961,0,0,0,.713-.3,1.006,1.006,0,0,0-.713-1.715Zm0,0" transform="translate(-250.394 -347.883)" fill="#284ed6"/>
  <path id="Path_3820" data-name="Path 3820" d="M231.339,167.068a3.308,3.308,0,0,0-2.228-.713,3.209,3.209,0,0,0-1.99.564,1.547,1.547,0,0,0-.742,1.188.639.639,0,0,0,.229.527.792.792,0,0,0,.511.186.571.571,0,0,0,.392-.152,1.8,1.8,0,0,0,.289-.324,1.085,1.085,0,0,1,.444-.324,1.926,1.926,0,0,1,.813-.151,1.729,1.729,0,0,1,1.11.33,1.123,1.123,0,0,1,.414.932,1.467,1.467,0,0,1-.171.683,2,2,0,0,1-.341.5q-.171.169-.512.462l-.431.352a2.943,2.943,0,0,0-.891,2.319,1,1,0,0,0,.156.646.675.675,0,0,0,.527.176q.742,0,.742-.535a4.3,4.3,0,0,1,.119-1.158,1.708,1.708,0,0,1,.624-.8l.284-.238.389-.371q.12-.119.367-.423a3.35,3.35,0,0,0,.375-.549,3.76,3.76,0,0,0,.24-.6,2.4,2.4,0,0,0,.113-.728,2.266,2.266,0,0,0-.831-1.8Zm0,0" transform="translate(-216.019 -158.809)" fill="#284ed6"/>
</svg>
