<svg id="my_profile" data-name="my profile" xmlns="http://www.w3.org/2000/svg" width="12.606" height="12.606" viewBox="0 0 12.606 12.606">
  <path id="Path_19468" data-name="Path 19468" d="M166,108.216A2.216,2.216,0,1,0,168.216,106,2.218,2.218,0,0,0,166,108.216Zm3.939,0a1.724,1.724,0,1,1-1.724-1.723A1.725,1.725,0,0,1,169.939,108.216Z" transform="translate(-161.913 -103.39)" fill="#fd5f80"/>
  <ellipse id="Ellipse_387" data-name="Ellipse 387" cy="0.392" ry="0.392" transform="translate(10.975 1.715)" fill="#fd5f80"/>
  <path id="Path_19469" data-name="Path 19469" d="M6.3,12.606a6.306,6.306,0,0,0,5.391-9.572.246.246,0,1,0-.421.256,5.818,5.818,0,0,1-1.117,7.364,3.94,3.94,0,0,0-7.707,0A5.812,5.812,0,0,1,6.3.492,5.756,5.756,0,0,1,9.866,1.711a.246.246,0,1,0,.3-.389,6.309,6.309,0,0,0-8.323.523A6.3,6.3,0,0,0,6.3,12.606Zm0-4.58a3.431,3.431,0,0,1,3.416,2.979,5.819,5.819,0,0,1-6.831,0A3.43,3.43,0,0,1,6.3,8.027Z" transform="translate(0 0)" fill="#fd5f80"/>
</svg>
