<svg id="side_menu" data-name="side menu" xmlns="http://www.w3.org/2000/svg" width="19" height="13.722" viewBox="0 0 19 13.722">
  <path id="Path_26" data-name="Path 26" d="M18.208,124.251H.792a.792.792,0,0,1,0-1.583H18.208a.792.792,0,1,1,0,1.583Zm0,0" transform="translate(0 -116.598)" fill="#fff"/>
  <path id="Path_27" data-name="Path 27" d="M18.208,1.583H.792A.792.792,0,0,1,.792,0H18.208a.792.792,0,1,1,0,1.583Zm0,0" fill="#fff"/>
  <path id="Path_28" data-name="Path 28" d="M18.208,246.915H.792a.792.792,0,1,1,0-1.583H18.208a.792.792,0,1,1,0,1.583Zm0,0" transform="translate(0 -233.193)" fill="#fff"/>
</svg>
