<svg xmlns="http://www.w3.org/2000/svg" width="11.482" height="13.763" viewBox="0 0 11.482 13.763">
  <g id="user" transform="translate(0 0)" opacity="0.72">
    <path id="Path_21" data-name="Path 21" d="M90.347,6.63a3.207,3.207,0,0,0,2.344-.971,3.207,3.207,0,0,0,.971-2.344A3.208,3.208,0,0,0,92.69.971,3.314,3.314,0,0,0,88,.971a3.207,3.207,0,0,0-.971,2.344A3.207,3.207,0,0,0,88,5.659,3.208,3.208,0,0,0,90.347,6.63Zm0,0" transform="translate(-84.692 0)" fill="#2980b9"/>
    <path id="Path_22" data-name="Path 22" d="M11.454,251.251a8.187,8.187,0,0,0-.112-.87,6.852,6.852,0,0,0-.214-.874,4.319,4.319,0,0,0-.359-.815,3.078,3.078,0,0,0-.542-.706,2.39,2.39,0,0,0-.779-.489,2.691,2.691,0,0,0-.994-.18,1.009,1.009,0,0,0-.539.228c-.161.105-.35.227-.561.362a3.216,3.216,0,0,1-.726.32,2.82,2.82,0,0,1-1.776,0,3.208,3.208,0,0,1-.726-.32c-.209-.133-.4-.255-.562-.362a1.007,1.007,0,0,0-.539-.228,2.687,2.687,0,0,0-.994.18,2.388,2.388,0,0,0-.779.489,3.077,3.077,0,0,0-.542.706,4.327,4.327,0,0,0-.359.816,6.867,6.867,0,0,0-.214.874,8.158,8.158,0,0,0-.112.87c-.018.263-.028.537-.028.813a2.285,2.285,0,0,0,.679,1.729,2.443,2.443,0,0,0,1.749.638H9.054a2.443,2.443,0,0,0,1.749-.638,2.284,2.284,0,0,0,.679-1.729c0-.277-.009-.551-.028-.813Zm0,0" transform="translate(0 -240.668)" fill="#2980b9"/>
  </g>
</svg>
