<svg xmlns="http://www.w3.org/2000/svg" width="148.073" height="96" viewBox="0 0 148.073 96">
  <g id="Gram_Login_Logo" data-name="Gram Login Logo" transform="translate(-106 -65)">
    <circle id="Ellipse_6" data-name="Ellipse 6" cx="48" cy="48" r="48" transform="translate(106 65)" fill="#fd6081" opacity="0.15"/>
    <path id="Path_19551" data-name="Path 19551" d="M9.164-8.637H15.48V-.82A14.176,14.176,0,0,1,9.891.234,8.138,8.138,0,0,1,3.674-2.057,9.086,9.086,0,0,1,1.512-8.543a9.741,9.741,0,0,1,1.072-4.635A7.511,7.511,0,0,1,5.654-16.3a9.346,9.346,0,0,1,4.588-1.1,11.826,11.826,0,0,1,5.027,1.031l-.48,1.078a10.867,10.867,0,0,0-4.617-1.031A7.058,7.058,0,0,0,4.8-14.232,7.857,7.857,0,0,0,2.813-8.59q0,3.867,1.887,5.818A7.365,7.365,0,0,0,10.242-.82a10.737,10.737,0,0,0,4.02-.668V-7.512h-5.1ZM20.977-7.465V0h-1.2V-17.133h4.078a7.683,7.683,0,0,1,4.711,1.178,4.2,4.2,0,0,1,1.523,3.545A4.632,4.632,0,0,1,29.186-9.5a5.049,5.049,0,0,1-2.76,1.7L31.078,0h-1.43L25.23-7.465Zm0-1.031h3.27a5.218,5.218,0,0,0,3.363-.967,3.453,3.453,0,0,0,1.2-2.854,3.347,3.347,0,0,0-1.172-2.848,6.4,6.4,0,0,0-3.82-.891H20.977ZM42.293-6.047H35.332L32.941,0H31.617l6.891-17.2h.762L46.02,0H44.672ZM35.766-7.125h6.129L39.563-13.3q-.293-.727-.7-2.016a18.792,18.792,0,0,1-.691,2.039ZM55.98,0,49.594-15.82H49.5q.094,1.453.094,2.977V0H48.445V-17.133H50.3l6.07,15.07h.07l6.07-15.07h1.8V0H63.105V-12.984q0-1.359.141-2.812h-.094L56.742,0Z" transform="translate(142 107)" fill="#0f4bb9"/>
    <path id="Path_19550" data-name="Path 19550" d="M12.781-4.956a4.613,4.613,0,0,1-1.74,3.809A7.556,7.556,0,0,1,6.2.244,11.367,11.367,0,0,1,1.147-.83V-4.346A20.826,20.826,0,0,0,4.205-3.21a9.048,9.048,0,0,0,2.289.33A3.254,3.254,0,0,0,8.4-3.357,1.628,1.628,0,0,0,9.07-4.773a1.563,1.563,0,0,0-.293-.934,3.278,3.278,0,0,0-.861-.787A22.134,22.134,0,0,0,5.6-7.7,10.964,10.964,0,0,1,3.149-9.18a5.545,5.545,0,0,1-1.306-1.648,4.7,4.7,0,0,1-.488-2.2A4.612,4.612,0,0,1,2.96-16.748,6.67,6.67,0,0,1,7.4-18.1a10.478,10.478,0,0,1,2.655.33,18.25,18.25,0,0,1,2.643.928L11.475-13.9a17.86,17.86,0,0,0-2.362-.818,7.6,7.6,0,0,0-1.837-.232,2.433,2.433,0,0,0-1.648.5,1.651,1.651,0,0,0-.574,1.306,1.616,1.616,0,0,0,.232.873,2.55,2.55,0,0,0,.739.72,22.834,22.834,0,0,0,2.4,1.251,9.544,9.544,0,0,1,3.43,2.4A4.681,4.681,0,0,1,12.781-4.956ZM30.542-17.847V-6.3a6.657,6.657,0,0,1-.885,3.467A5.76,5.76,0,0,1,27.1-.549a9.146,9.146,0,0,1-3.955.793A7.573,7.573,0,0,1,17.8-1.52a6.257,6.257,0,0,1-1.9-4.828v-11.5h3.772V-6.921a4.576,4.576,0,0,0,.83,3.027,3.451,3.451,0,0,0,2.747.964,3.374,3.374,0,0,0,2.692-.97,4.6,4.6,0,0,0,.836-3.046v-10.9Zm14.551,0h3.821L42.847,0H38.721L32.666-17.847h3.821l3.357,10.62q.281.94.58,2.191T40.8-3.3a31.268,31.268,0,0,1,.916-3.931ZM51.16,0V-17.847h3.784V0ZM74.243-9.094q0,4.407-2.509,6.75T64.49,0H59.436V-17.847h5.6a9.435,9.435,0,0,1,6.787,2.307A8.486,8.486,0,0,1,74.243-9.094ZM70.313-9q0-5.75-5.078-5.75H63.22V-3.125h1.624Q70.313-3.125,70.313-9ZM92.566,0H88.794V-7.7H81.726V0H77.942V-17.847h3.784v6.995h7.068v-6.995h3.772ZM108,0,106.7-4.248H100.2L98.9,0H94.824l6.3-17.92h4.626L112.073,0Zm-2.2-7.422Q104-13.2,103.778-13.953t-.323-1.2q-.4,1.563-2.307,7.727Z" transform="translate(142 132)" fill="#0f4bb9"/>
  </g>
</svg>
